<svg xmlns="http://www.w3.org/2000/svg" viewBox="0 0 1273.26 86.34"><defs><style>.cls-1{fill:#0071bc;}.cls-2{fill:#f2472c;}</style></defs><title>logo</title><g id="Layer_2" data-name="Layer 2"><g id="logo-horizontal"><path class="cls-1" d="M61.79,85.26,50.45,54.91C42,56.12,30.08,62.6,24.28,70.55L19,85.26H0s1.48-.68,2.83-4.59L32,2.7H47.75L77,81.48a7.21,7.21,0,0,0,2.43,3.78ZM25.23,54.1c5.66-4.19,17.4-6.88,22.12-7.56l-5.93-21L39.8,14.43l-1.49,11.2-5.8,22.13Z"/><path class="cls-1" d="M119.52,86.34c-31.44,0-34.27-22.26-34.27-31.57V5.4a7.1,7.1,0,0,0-.4-2.84h16.59V54.77c0,9,3.51,21,18.08,21s19.15-11.88,19.15-21V2.56h16.6a5.5,5.5,0,0,0-.54,2.84V54.77C154.73,63.81,150.82,86.34,119.52,86.34Z"/><path class="cls-1" d="M197.62,86.34A49.59,49.59,0,0,1,167.4,75.55L177,62.46s9.44,12.68,20.64,12.68c7.83,0,13.76-2.7,13.76-10.79,0-9.71-41.28-16-41.28-40.74C170.1,1.89,190.47.27,197.62.27c16.59,0,25.5,8,25.9,8.5L213.27,21s-6.48-9.71-15.65-9.71c-4.18,0-10.39,1.89-10.39,8.77,0,16.32,41.42,16.86,41.42,40.88C228.65,80.94,206,86.34,197.62,86.34Z"/><path class="cls-1" d="M309.72,3.51V17.13s-1.21-1.75-6.88-1.75H280.72V78.51a14.49,14.49,0,0,0,1.48,6.75H262.91a14.49,14.49,0,0,0,1.48-6.75V15.38H242.27c-5.67,0-6.88,1.75-6.88,1.75V3.51Z"/><path class="cls-1" d="M335.08,85.26H317.81a8.13,8.13,0,0,0,.54-1.35V4.72l-.54-1.35h17.27a1.57,1.57,0,0,0-.68,1.22V84A2,2,0,0,0,335.08,85.26Z"/><path class="cls-1" d="M417.64,82.56a7.57,7.57,0,0,0,.4,2.7H401.85l-36-57.47V83.1c0,1.75.68,2.16.68,2.16H349.24a3.16,3.16,0,0,0,.54-2.16V6.21a8.5,8.5,0,0,0-.4-2.7H365.7L401.58,61l.14-55.18c0-1.75-.81-2.29-.81-2.29h17.27a3.82,3.82,0,0,0-.54,2.29Z"/><path class="cls-1" d="M570.33,85.26H553.06a9.19,9.19,0,0,0,.54-1.35V4.72l-.54-1.35h17.27a1.57,1.57,0,0,0-.68,1.22V84A2,2,0,0,0,570.33,85.26Z"/><path class="cls-1" d="M646.14,83.1V34L625.77,82.56h-4l-20.64-49L601,83.1c0,1.75.81,2.16.81,2.16H584.49A3.16,3.16,0,0,0,585,83.1V6.21a8.31,8.31,0,0,0-.41-2.7h16.19l22.13,50.72.81,10.12.67-9.31L645.87,3.51h17a5.09,5.09,0,0,0-.68,2.83l-.13,76.76c0,1.75,1.08,2.16,1.08,2.16H645.47S646.14,85.26,646.14,83.1Z"/><path class="cls-1" d="M730.31,85.26,719,54.91c-8.5,1.21-20.37,7.69-26.17,15.64l-5.26,14.71h-19s1.48-.68,2.83-4.59l29.14-78h15.78l29.28,78.78A7.21,7.21,0,0,0,748,85.26ZM693.76,54.1c5.66-4.19,17.4-6.88,22.12-7.56l-5.94-21-1.61-11.07-1.49,11.2L701,47.76Z"/><path class="cls-1" d="M825.28,49.64V79.46c-.27.4-9.31,6.88-29.68,6.88-9.58,0-43.57-1-43.57-43.17S785.89,0,795.6,0c20.64,0,29.68,8.36,29.68,8.36L814.76,18.89s-4.18-7-19.43-7c-6.47,0-26.17,2.3-26.17,31.3s19.29,31.3,26.17,31.3c9.71,0,14-2.84,14-2.84V49.78a6.35,6.35,0,0,0-.54-1.35h17.27A1.77,1.77,0,0,0,825.28,49.64Z"/><path class="cls-1" d="M856.84,85.26H839.57a8.13,8.13,0,0,0,.54-1.35V4.72l-.54-1.35h17.27a1.57,1.57,0,0,0-.67,1.22V84A2,2,0,0,0,856.84,85.26Z"/><path class="cls-1" d="M939.4,82.56a7.57,7.57,0,0,0,.4,2.7H923.62l-36-57.47V83.1c0,1.75.67,2.16.67,2.16H871a3.16,3.16,0,0,0,.54-2.16V6.21a8.5,8.5,0,0,0-.4-2.7h16.32L923.35,61l.13-55.18c0-1.75-.81-2.29-.81-2.29h17.27a3.82,3.82,0,0,0-.54,2.29Z"/><path class="cls-1" d="M1007.11,85.26,995.78,54.91c-8.5,1.21-20.37,7.69-26.17,15.64l-5.26,14.71h-19s1.48-.68,2.83-4.59l29.14-78h15.78l29.28,78.78a7.21,7.21,0,0,0,2.43,3.78ZM970.56,54.1c5.66-4.19,17.4-6.88,22.12-7.56l-5.94-21-1.61-11.07-1.49,11.2-5.8,22.13Z"/><path class="cls-1" d="M1099.11,3.51V17.13s-1.21-1.75-6.88-1.75h-22.12V78.51a14.49,14.49,0,0,0,1.48,6.75H1052.3a14.41,14.41,0,0,0,1.49-6.75V15.38h-22.13c-5.66,0-6.88,1.75-6.88,1.75V3.51Z"/><path class="cls-1" d="M1124.47,85.26H1107.2a8.13,8.13,0,0,0,.54-1.35V4.72l-.54-1.35h17.27a1.57,1.57,0,0,0-.68,1.22V84A2,2,0,0,0,1124.47,85.26Z"/><path class="cls-1" d="M1210.94,2.83s-2.29.81-3.64,5l-28.6,77.43H1162l-28.6-77.43c-1.48-4.05-2.83-5-2.83-5h20.1l17.94,58.82,1.62,13.22,1.62-13.22,19.56-58.82Z"/><path class="cls-1" d="M1216.33,85.26s1.35-1.48,1.35-6.75V10.12c0-5.4-1.35-6.61-1.35-6.61h56.93v14.3s-1.22-1.76-6.88-1.76l-32.51-.67V37.5a24.11,24.11,0,0,1,4.85-.54H1270V48.43h-31.3c-3.5,0-4.85,1.75-4.85,2.56v22.4l32.51-.68a17,17,0,0,0,6.88-1.48v14Z"/><polygon class="cls-2" points="487.33 56.56 503.47 67.79 497.77 48.97 513.45 37.08 493.78 36.68 487.33 18.1 480.87 36.68 461.2 37.08 476.88 48.97 471.18 67.79 487.33 56.56"/></g></g></svg>