<svg xmlns="http://www.w3.org/2000/svg" viewBox="0 0 1256.47 497.54"><defs><style>.cls-1{fill:#0071bc;}.cls-2{fill:#f2472c;}</style></defs><title>logo-stacked</title><g id="Layer_2" data-name="Layer 2"><g id="logo-stacked"><path class="cls-1" d="M365.36,148.26,345.59,95.31c-14.83,2.12-35.54,13.42-45.65,27.3l-9.18,25.65H257.57s2.59-1.18,4.95-8l50.83-136h27.53L392,141.67c1.65,4.94,4.24,6.59,4.24,6.59ZM301.58,93.9c9.89-7.3,30.36-12,38.6-13.18L329.82,44,327,24.71l-2.59,19.53-10.12,38.6Z"/><path class="cls-1" d="M466.08,150.14c-54.83,0-59.77-38.83-59.77-55.06V8.94A12.14,12.14,0,0,0,405.6,4h28.95V95.08c0,15.76,6.12,36.71,31.53,36.71s33.42-20.71,33.42-36.71V4h29s-1,1.41-1,4.94V95.08C527.5,110.84,520.68,150.14,466.08,150.14Z"/><path class="cls-1" d="M602.34,150.14c-30.35,0-51.77-17.88-52.71-18.82l16.71-22.83s16.47,22.12,36,22.12c13.65,0,24-4.71,24-18.83,0-16.94-72-28-72-71.07,0-37.89,35.53-40.71,48-40.71,28.95,0,44.48,13.88,45.19,14.83L629.64,36.24S618.35,19.3,602.34,19.3c-7.29,0-18.12,3.29-18.12,15.29,0,28.48,72.25,29.42,72.25,71.31C656.47,140.73,616.94,150.14,602.34,150.14Z"/><path class="cls-1" d="M797.91,5.65V29.42s-2.12-3.06-12-3.06h-38.6V136.5a25.2,25.2,0,0,0,2.59,11.76H716.25a25.2,25.2,0,0,0,2.59-11.76V26.36h-38.6c-9.88,0-12,3.06-12,3.06V5.65Z"/><path class="cls-1" d="M842.16,148.26H812a15.19,15.19,0,0,0,1-2.35V7.77l-1-2.36h30.13A2.72,2.72,0,0,0,841,7.53V146.14A3.49,3.49,0,0,0,842.16,148.26Z"/><path class="cls-1" d="M986.18,143.56a12.92,12.92,0,0,0,.71,4.7H958.65L895.81,48V144.5c0,3.06,1.18,3.76,1.18,3.76H866.87s.94-.94.94-3.76V10.35a14.54,14.54,0,0,0-.71-4.7h28.48l62.6,100.25.23-96.25c0-3.06-1.41-4-1.41-4h30.12a6.7,6.7,0,0,0-.94,4Z"/><path class="cls-1" d="M30.12,495.65H0a14.51,14.51,0,0,0,.94-2.35V355.16L0,352.8H30.12A2.71,2.71,0,0,0,29,354.92V493.53A3.45,3.45,0,0,0,30.12,495.65Z"/><path class="cls-1" d="M162.38,491.89V406.23L126.84,491h-7.06l-36-85.43-.24,86.37c0,3.06,1.41,3.76,1.41,3.76H54.83s.94-.94.94-3.76V357.75a14.75,14.75,0,0,0-.7-4.71H83.31l38.59,88.49,1.41,17.65,1.18-16.24L161.91,353h29.65a9,9,0,0,0-1.17,4.94l-.24,133.91c0,3.06,1.88,3.76,1.88,3.76H161.2S162.38,495.65,162.38,491.89Z"/><path class="cls-1" d="M309.23,495.65,289.47,442.7c-14.83,2.12-35.54,13.42-45.66,27.3l-9.18,25.65H201.45s2.59-1.17,4.94-8l50.83-136h27.54l51.07,137.43c1.64,4.95,4.23,6.59,4.23,6.59Zm-63.77-54.36c9.88-7.3,30.36-12,38.59-13.18L273.7,391.4l-2.83-19.3-2.58,19.53-10.12,38.6Z"/><path class="cls-1" d="M474.91,433.52v52c-.47.71-16.24,12-51.77,12-16.71,0-76-1.65-76-75.31s59.07-75.31,76-75.31c36,0,51.77,14.59,51.77,14.59l-18.36,18.36s-7.29-12.24-33.88-12.24c-11.3,0-45.66,4-45.66,54.6s33.65,54.6,45.66,54.6c16.94,0,24.47-4.95,24.47-4.95V433.76a11.46,11.46,0,0,0-.94-2.35h30.12A3,3,0,0,0,474.91,433.52Z"/><path class="cls-1" d="M530,495.65H499.86a15.56,15.56,0,0,0,.94-2.35V355.16l-.94-2.36H530a2.72,2.72,0,0,0-1.18,2.12V493.53A3.49,3.49,0,0,0,530,495.65Z"/><path class="cls-1" d="M674,491a13,13,0,0,0,.7,4.7H646.47L583.64,395.4v96.49c0,3.06,1.17,3.76,1.17,3.76H554.69s.94-.94.94-3.76V357.75a14.56,14.56,0,0,0-.71-4.71H583.4L646,453.29l.24-96.25c0-3.06-1.42-4-1.42-4H675a6.73,6.73,0,0,0-.94,4Z"/><path class="cls-1" d="M792.15,495.65,772.38,442.7c-14.83,2.12-35.54,13.42-45.66,27.3l-9.18,25.65H684.36s2.59-1.17,4.94-8l50.84-136h27.53l51.07,137.43c1.65,4.95,4.24,6.59,4.24,6.59Zm-63.78-54.36c9.88-7.3,30.36-12,38.59-13.18L756.61,391.4l-2.82-19.3-2.59,19.53-10.12,38.6Z"/><path class="cls-1" d="M952.65,353v23.77s-2.12-3.06-12-3.06H902.05V483.89a25.2,25.2,0,0,0,2.59,11.76H871a25.2,25.2,0,0,0,2.59-11.76V373.75H835c-9.89,0-12,3.06-12,3.06V353Z"/><path class="cls-1" d="M996.89,495.65H966.77a15.56,15.56,0,0,0,.94-2.35V355.16l-.94-2.36h30.12a2.71,2.71,0,0,0-1.17,2.12V493.53A3.45,3.45,0,0,0,996.89,495.65Z"/><path class="cls-1" d="M1147.74,351.86s-4,1.41-6.35,8.71L1091.5,495.65h-29.19l-49.89-135.08c-2.59-7.06-4.94-8.71-4.94-8.71h35.07l31.29,102.61,2.83,23.06,2.82-23.06,34.13-102.61Z"/><path class="cls-1" d="M1157.15,495.65s2.36-2.59,2.36-11.76V364.57c0-9.41-2.36-11.53-2.36-11.53h99.32V378s-2.12-3.05-12-3.05l-56.71-1.18v38.59a42.26,42.26,0,0,1,8.47-.94h54.6v20h-54.6c-6.12,0-8.47,3.06-8.47,4.47v39.06l56.71-1.17a29.52,29.52,0,0,0,12-2.59v24.47Z"/><polygon class="cls-2" points="628.23 278.55 658.82 299.84 648.03 264.17 677.72 241.66 640.47 240.9 628.23 205.7 616 240.9 578.74 241.66 608.44 264.17 597.65 299.84 628.23 278.55"/></g></g></svg>